<svg xmlns="http://www.w3.org/2000/svg" width="381" height="329" preserveAspectRatio="none" style="display: block;" version="1.1" viewBox="0 0 1524 1316"><path fill="rgb(255,255,255)" d="M0 0h1524v1316h-1524z"/><path fill="rgb(5,125,117)" d="m451.023 158.775 215.681.193c39.196-.005 81.133.754 120.085-.134-.006 39.878-6.319 80.297 23.623 110.01a80.33 80.33 0 0 0 57.872 23.023 78.4 78.4 0 0 0 54.97-23.829c29.529-30.721 22.43-68.945 22.793-108.78 17.847.424 35.832-.471 53.592 1.297a167.82 167.82 0 0 1 102.491 50.27c9.02 9.424 20.23 23.569 25.34 35.574-43.29 25.227-91.16 58.313-131.014 88.489a1109 1109 0 0 0-31.796 24.812c-7.919 6.499-19.914 17.298-28.352 22.085l-310.784.084-94.172-.018c-42.331.03-81.86-1.146-123.458 9.179-59.616 14.798-110.814 45.456-153.672 89.273-151.841 155.239-110.137 421.455 36.971 565.217a452.52 452.52 0 0 0 322.264 131.21 451.66 451.66 0 0 0 318.434-137.75 441.9 441.9 0 0 0 118.909-237.677c9.06-55.256 8.72-121.588-15.84-173.123-32.71 11.439-76.713 31.681-105.495 52.246-4.39-7.396-.155-7.47 2.289-15.247 18.176-24.195 41.968-50.878 61.456-74.319 10.47-12.597 36.15-43.096 47.86-53.059 33.76 9.067 57.67 24.198 77.03 54.21 44.17 78.758 36.66 201.173 12.76 285.915-38.92 137.984-135.595 256.264-260.371 326.034-126.508 69.29-275.249 85.85-413.902 46.09-136.03-38.66-256.444-136.68-324.884-259.991a532.2 532.2 0 0 1-59.243-168.341 562 562 0 0 1-7.926-69.58c-1.65-33.039-1.317-66.044-1.298-99.113l.025-126.167-.017-117.988c-.006-20.223.432-41.354-.044-61.511-1.602-67.778 27.688-131.716 87.892-166.019 45.377-25.854 89.104-22.317 139.992-22.154-.097 38.933-5.388 79.862 24.022 109.563a78.5 78.5 0 0 0 56.88 23.362 78.48 78.48 0 0 0 56.121-24.239c30.48-31.332 21.768-68.878 22.916-109.097"/><path fill="rgb(236,178,35)" d="M1387.06 194.501c-.13 2.627-10.21 7.508-12.6 8.735-155.15 79.495-280.54 204.702-393.841 334.904-87.264 100.279-171.36 203.597-253.57 308.06l-71.777 91.269c-19.435 25.088-43.743 57.376-64.786 80.911l-163.153-175.414c-22.985-24.81-45.47-50.569-69.064-74.703-18.144-19.067-36.733-37.926-53.494-58.184 13.076-13.907 31.048-29.553 45.067-43.337 13.249-13.027 29.43-30.265 43.029-41.945 18.186 21.578 44.333 48.101 63.869 68.539l70.072 73.792c16.545 17.1 41.765 41.442 56.238 59.466 46.17-52.942 91.15-109.242 137.626-162.061a2952 2952 0 0 1 189.603-196.297c20.937-19.622 42.509-40.776 64.604-59.376 107.357-90.373 224.727-170.288 362.337-205.648 15.21-3.908 34.26-6.36 49.84-8.711"/><path fill="rgb(236,178,35)" d="M1041.07 537.801c22.28-28.881 109.79-121.444 138.7-137.546 22.42-12.486 50.32-18.722 75.53-21.997 72.46-9.409 149.28 10.253 207.21 55.061 19.57 15.137 39.71 32.44 52.6 53.865-28.95-8.344-57.76-17.602-87.4-22.884a571.4 571.4 0 0 0-219.04 4.073c-16.88 3.541-37.57 8.32-53.39 14.972 132.61-2.918 240.08 60.111 276.5 193.488 3.29 12.07 4.78 23.644 7.17 35.798-20.64-23.68-38.09-42.446-62.5-63.032-61.25-51.656-140.71-86.397-218.67-102.909 17.33 10.918 37.87 22.921 53.91 35.064a216.04 216.04 0 0 1 81.36 125.465c6.9 30.275 5.82 78.561-1.94 108.521-31.66-94.719-83.84-167.419-168.19-222.26-1.26-.817-3.33-1.412-4.82-1.469-19.36-30.012-43.27-45.143-77.03-54.21"/><path fill="rgb(5,125,117)" d="M369.52 51.34c16.785-1.207 41.101 12.937 43.725 29.691 3.362 21.469 3.84 49.039 2.775 71.124-1.942 40.264 13.392 100.345-43.112 105.424-47.542-1.389-48.95-40.722-47.045-77.208.351-6.72-.404-14.141.014-20.865 2.594-41.753-14.99-100.63 43.643-108.166m493.057-.117c9.83-.615 18.535 2.311 26.985 7.041 24.803 13.886 21.508 40.485 21.656 64.839.069 11.439-.091 22.81.064 34.243-2.572 40.325 13.863 88.416-38.899 99.949-22.56.376-45.647-9.313-49.283-34.491-2.163-25.071-2.505-51.946-1.711-77.206 1.245-39.572-10.404-85.879 41.188-94.375"/><path fill="rgb(236,178,35)" d="M572.634 565.492c37.466-5.762 72.461 20.079 77.98 57.581s-20.548 72.33-58.085 77.606c-37.196 5.228-71.636-20.549-77.105-57.71s20.085-71.768 57.21-77.477"/><path fill="rgb(92,121,118)" d="M931.754 665.179c-2.444 7.777-6.679 7.851-2.289 15.247-7.355 4.493-14.602 9.959-21.616 15.03a1150 1150 0 0 0 23.905-30.277"/></svg>